<?xml version="1.0" standalone="no"?>
<!DOCTYPE svg PUBLIC "-//W3C//DTD SVG 20010904//EN"
 "http://www.w3.org/TR/2001/REC-SVG-20010904/DTD/svg10.dtd">
<svg version="1.0" xmlns="http://www.w3.org/2000/svg"
 width="1342.000000pt" height="1342.000000pt" viewBox="0 0 1342.000000 1342.000000"
 preserveAspectRatio="xMidYMid meet">
<metadata>
Created by potrace 1.11, written by Peter Selinger 2001-2013
</metadata>
<g transform="translate(0.000000,1342.000000) scale(0.100000,-0.100000)"
fill="#000000" stroke="none">
<path d="M6490 13364 c-649 -31 -1247 -138 -1813 -325 -1250 -413 -2324 -1151
-3133 -2154 -280 -347 -492 -668 -713 -1082 -430 -801 -702 -1760 -762 -2688
-13 -195 -6 -810 11 -980 32 -323 110 -764 189 -1075 109 -428 311 -961 515
-1355 488 -946 1121 -1694 1981 -2342 399 -301 991 -632 1468 -822 636 -254
1240 -399 1937 -467 214 -21 798 -24 1025 -6 1122 92 2163 444 3115 1051 390
249 755 545 1110 901 780 780 1346 1728 1669 2794 121 398 206 828 256 1301
23 208 31 711 16 965 -62 1054 -382 2098 -924 3010 -393 662 -873 1226 -1462
1718 -725 606 -1556 1045 -2482 1311 -362 104 -891 199 -1293 230 -137 11
-591 21 -710 15z"/>
</g>
</svg>
